HIERARCHY
ROOT Hips
{
	OFFSET -14.64140 90.27770 -84.91600
	CHANNELS 6 Xposition Yposition Zposition Zrotation Xrotation Yrotation
	JOINT Spine
	{
		OFFSET 0.00000 13.20850 -1.60436
		CHANNELS 3 Zrotation Xrotation Yrotation
		JOINT Spine1
		{
			OFFSET 0.00000 8.61716 0.00000
			CHANNELS 3 Zrotation Xrotation Yrotation
			JOINT Spine2
			{
				OFFSET 0.00000 8.61717 0.00000
				CHANNELS 3 Zrotation Xrotation Yrotation
				JOINT Spine3
				{
					OFFSET 0.00000 8.61717 0.00000
					CHANNELS 3 Zrotation Xrotation Yrotation
					JOINT Neck
					{
						OFFSET 0.00000 11.07920 1.10792
						CHANNELS 3 Zrotation Xrotation Yrotation
						JOINT Neck1
						{
							OFFSET 0.00000 7.08032 0.00000
							CHANNELS 3 Zrotation Xrotation Yrotation
							JOINT Head
							{
								OFFSET 0.00000 7.08031 0.00000
								CHANNELS 3 Zrotation Xrotation Yrotation
								End site
								{
									OFFSET 0.00000 0.00000 0.00000
								}
							}
						}
					}
					JOINT RightShoulder
					{
						OFFSET -0.01000 7.91373 5.19711
						CHANNELS 3 Zrotation Xrotation Yrotation
						JOINT RightArm
						{
							OFFSET -18.41580 0.00000 0.00000
							CHANNELS 3 Zrotation Xrotation Yrotation
							JOINT RightForeArm
							{
								OFFSET -29.11090 0.00000 0.00000
								CHANNELS 3 Zrotation Xrotation Yrotation
								JOINT RightHand
								{
									OFFSET -24.65040 0.00000 0.00000
									CHANNELS 3 Zrotation Xrotation Yrotation
									JOINT RightHandThumb1
									{
										OFFSET -5.35114 -0.85590 3.97906
										CHANNELS 3 Zrotation Xrotation Yrotation
										JOINT RightHandThumb2
										{
											OFFSET -4.52789 0.00000 0.00000
											CHANNELS 3 Zrotation Xrotation Yrotation
											JOINT RightHandThumb3
											{
												OFFSET -2.46976 0.00000 0.00000
												CHANNELS 3 Zrotation Xrotation Yrotation
												End site
												{
													OFFSET 0.00000 0.00000 0.00000
												}
											}
										}
									}
									JOINT RightHandIndex1
									{
										OFFSET -14.26970 0.00000 2.88139
										CHANNELS 3 Zrotation Xrotation Yrotation
										JOINT RightHandIndex2
										{
											OFFSET -5.48836 0.00000 0.00000
											CHANNELS 3 Zrotation Xrotation Yrotation
											JOINT RightHandIndex3
											{
												OFFSET -3.01859 0.00000 0.00000
												CHANNELS 3 Zrotation Xrotation Yrotation
												End site
												{
													OFFSET 0.00000 0.00000 0.00000
												}
											}
										}
									}
									JOINT RightHandMiddle1
									{
										OFFSET -14.26970 0.00000 -0.09147
										CHANNELS 3 Zrotation Xrotation Yrotation
										JOINT RightHandMiddle2
										{
											OFFSET -6.17441 0.00000 0.00000
											CHANNELS 3 Zrotation Xrotation Yrotation
											JOINT RightHandMiddle3
											{
												OFFSET -3.56743 0.00000 0.00000
												CHANNELS 3 Zrotation Xrotation Yrotation
												End site
												{
													OFFSET 0.00000 0.00000 0.00000
												}
											}
										}
									}
									JOINT RightHandRing1
									{
										OFFSET -12.69180 0.00000 -3.06433
										CHANNELS 3 Zrotation Xrotation Yrotation
										JOINT RightHandRing2
										{
											OFFSET -5.62556 0.00000 0.00000
											CHANNELS 3 Zrotation Xrotation Yrotation
											JOINT RightHandRing3
											{
												OFFSET -3.56744 0.00000 0.00000
												CHANNELS 3 Zrotation Xrotation Yrotation
												End site
												{
													OFFSET 0.00000 0.00000 0.00000
												}
											}
										}
									}
									JOINT RightHandPinky1
									{
										OFFSET -11.11390 0.00000 -6.03719
										CHANNELS 3 Zrotation Xrotation Yrotation
										JOINT RightHandPinky2
										{
											OFFSET -4.52789 0.00000 0.00000
											CHANNELS 3 Zrotation Xrotation Yrotation
											JOINT RightHandPinky3
											{
												OFFSET -2.46976 0.00000 0.00000
												CHANNELS 3 Zrotation Xrotation Yrotation
												End site
												{
													OFFSET 0.00000 0.00000 0.00000
												}
											}
										}
									}
								}
							}
						}
					}
					JOINT LeftShoulder
					{
						OFFSET 0.01000 7.91373 5.19711
						CHANNELS 3 Zrotation Xrotation Yrotation
						JOINT LeftArm
						{
							OFFSET 18.41580 0.00000 0.00000
							CHANNELS 3 Zrotation Xrotation Yrotation
							JOINT LeftForeArm
							{
								OFFSET 29.11090 0.00000 0.00000
								CHANNELS 3 Zrotation Xrotation Yrotation
								JOINT LeftHand
								{
									OFFSET 24.65040 0.00000 0.00000
									CHANNELS 3 Zrotation Xrotation Yrotation
									JOINT LeftHandThumb1
									{
										OFFSET 5.35114 -0.85590 3.97906
										CHANNELS 3 Zrotation Xrotation Yrotation
										JOINT LeftHandThumb2
										{
											OFFSET 4.52789 0.00000 0.00000
											CHANNELS 3 Zrotation Xrotation Yrotation
											JOINT LeftHandThumb3
											{
												OFFSET 2.46977 0.00000 0.00000
												CHANNELS 3 Zrotation Xrotation Yrotation
												End site
												{
													OFFSET 0.00000 0.00000 0.00000
												}
											}
										}
									}
									JOINT LeftHandIndex1
									{
										OFFSET 14.26970 0.00000 2.88139
										CHANNELS 3 Zrotation Xrotation Yrotation
										JOINT LeftHandIndex2
										{
											OFFSET 5.48836 0.00000 0.00000
											CHANNELS 3 Zrotation Xrotation Yrotation
											JOINT LeftHandIndex3
											{
												OFFSET 3.01859 0.00000 0.00000
												CHANNELS 3 Zrotation Xrotation Yrotation
												End site
												{
													OFFSET 0.00000 0.00000 0.00000
												}
											}
										}
									}
									JOINT LeftHandMiddle1
									{
										OFFSET 14.26970 0.00000 -0.09147
										CHANNELS 3 Zrotation Xrotation Yrotation
										JOINT LeftHandMiddle2
										{
											OFFSET 6.17440 0.00000 0.00000
											CHANNELS 3 Zrotation Xrotation Yrotation
											JOINT LeftHandMiddle3
											{
												OFFSET 3.56744 0.00000 0.00000
												CHANNELS 3 Zrotation Xrotation Yrotation
												End site
												{
													OFFSET 0.00000 0.00000 0.00000
												}
											}
										}
									}
									JOINT LeftHandRing1
									{
										OFFSET 12.69180 0.00000 -3.06433
										CHANNELS 3 Zrotation Xrotation Yrotation
										JOINT LeftHandRing2
										{
											OFFSET 5.62556 0.00000 0.00000
											CHANNELS 3 Zrotation Xrotation Yrotation
											JOINT LeftHandRing3
											{
												OFFSET 3.56744 0.00000 0.00000
												CHANNELS 3 Zrotation Xrotation Yrotation
												End site
												{
													OFFSET 0.00000 0.00000 0.00000
												}
											}
										}
									}
									JOINT LeftHandPinky1
									{
										OFFSET 11.11390 0.00000 -6.03719
										CHANNELS 3 Zrotation Xrotation Yrotation
										JOINT LeftHandPinky2
										{
											OFFSET 4.52789 0.00000 0.00000
											CHANNELS 3 Zrotation Xrotation Yrotation
											JOINT LeftHandPinky3
											{
												OFFSET 2.46976 0.00000 0.00000
												CHANNELS 3 Zrotation Xrotation Yrotation
												End site
												{
													OFFSET 0.00000 0.00000 0.00000
												}
											}
										}
									}
								}
							}
						}
					}
					JOINT pCube4
					{
						OFFSET 0.00000 10.91090 1.10792
						CHANNELS 3 Zrotation Xrotation Yrotation
						End site
						{
							OFFSET 0.00000 0.00000 0.00000
						}
					}
				}
			}
		}
	}
	JOINT RightUpLeg
	{
		OFFSET -9.98441 0.00000 0.00000
		CHANNELS 3 Zrotation Xrotation Yrotation
		JOINT RightLeg
		{
			OFFSET 0.00000 -42.11790 0.00000
			CHANNELS 3 Zrotation Xrotation Yrotation
			JOINT RightFoot
			{
				OFFSET 0.00000 -45.00020 -0.00001
				CHANNELS 3 Zrotation Xrotation Yrotation
				JOINT RightForeFoot
				{
					OFFSET 0.00000 -3.74820 0.00000
					CHANNELS 3 Zrotation Xrotation Yrotation
					JOINT RightToeBase
					{
						OFFSET 0.00000 0.06325 14.43120
						CHANNELS 3 Zrotation Xrotation Yrotation
						End site
						{
							OFFSET 0.00000 0.00000 0.00000
						}
					}
				}
			}
		}
	}
	JOINT LeftUpLeg
	{
		OFFSET 9.98441 0.00000 0.00000
		CHANNELS 3 Zrotation Xrotation Yrotation
		JOINT LeftLeg
		{
			OFFSET 0.00000 -42.11800 0.00000
			CHANNELS 3 Zrotation Xrotation Yrotation
			JOINT LeftFoot
			{
				OFFSET 0.00000 -45.00070 0.00000
				CHANNELS 3 Zrotation Xrotation Yrotation
				JOINT LeftForeFoot
				{
					OFFSET 0.00000 -3.74824 0.00000
					CHANNELS 3 Zrotation Xrotation Yrotation
					JOINT LeftToeBase
					{
						OFFSET 0.00000 0.06325 14.43110
						CHANNELS 3 Zrotation Xrotation Yrotation
						End site
						{
							OFFSET 0.00000 0.00000 0.00000
						}
					}
				}
			}
		}
	}
}
MOTION
Frames: 4
Frame Time: 0.050000
-0.0040862694288915915 0.0233452634332123 0.011208590459713948 0.006920347040293565 -0.04154159297337909 -0.027294549601490803 -3.200229926480104 2.0875028420133943 -0.6779099597307878 -0.9994537068262062 3.7994918081056452 0.3547901460778439 -0.9464349454877691 -1.755160873746786 -2.2638798717026516 -0.9177663451364522 0.5436210503037502 -0.9541954614119162 -2.3501009324413547 13.654752424734847 5.416038649588798 -0.5354534137255921 -0.8009117097549433 11.574371505906685 -2.058789991928356 -16.682171854005926 1.0046503662924187 -3.942612876085828 1.5527172339249917 -13.268320502520192 73.0223433084659 20.2503421785475 10.269300729116306 11.60363641388333 5.610170193805236 70.67443458847546 18.170352530690824 -0.36104727692968763 -3.6960674901527852 4.498978108844577 -0.09349706184184366 -1.6018006259419701 0.011151119007993015 -0.025705952207955813 -56.25797436900903 0.005936715227449248 -0.039429025056295856 -56.20474144310321 -38.781487109227776 0.0113557737652956 -0.014343505445912355 0.007577702137369652 0.007451520190642722 -0.01862348257504515 -0.020246034289634014 0.04555454654726349 -0.03674918498070134 -36.737453745168196 0.003958719072155825 0.03898571319052633 -0.002474439130194652 0.024339302492168022 -0.01382087966015246 0.034474780618997586 0.029669924437099617 0.0037058335788908367 -19.73076912589224 0.027126722342245137 -0.007050582534110568 0.0025443102106703676 -0.04313742251704398 -0.03465921250162484 0.00897374399512694 0.04454677976238403 -0.025546076117074774 24.03316565221066 -0.048125790590073866 0.010668185645443572 28.829347665713232 -0.008238435276445962 0.04150876067854807 28.82319229515291 -0.046456459119133334 -0.008552964946483202 10.288965739819778 2.141514596094387 12.383982731076483 -70.65478803275855 8.44961507242338 -28.719109622038907 -65.42358600948926 9.67613815876337 -92.07830182340686 -7.390943690430626 2.4130840500719732 -2.0501160257947464 -0.5190118006361741 0.08649216155975896 -8.125352761873648 0.047388648433976145 -0.02349275666904426 44.52121979216045 0.0345064357549229 0.021510543897687934 44.57808006697705 12.454055049475102 0.01338370676875959 -0.006137875712332194 0.0011530800930564919 -0.013935282090856657 0.012192393648880829 0.0357810284278254 0.005653487300282101 0.025043104846309675 11.087670220434292 -0.007386327671924192 0.007702649708396675 0.020386596951683073 0.010567868805646032 -0.03531446773377468 -0.006324870628147468 -0.0059244817865418955 -0.019294989834579553 4.723348446272513 0.01697558107793879 -0.009003415341483573 -0.029610813305240388 0.00669944319347905 0.02403925073263968 -0.006607950602829672 0.012207109885134055 0.041836352483270015 -5.628228136078998 -0.04423506507292528 0.04788001083031619 -6.697793276941128 -0.026839907895580488 -0.015559468106409841 -6.743334855956771 0.004157393193350543 -0.02459963665655133 0.030428899271518768 -0.01319838162145843 -0.035046142022708546 8.053174369522457 3.5065903965963687 -19.184374364396156 0.036078776060022806 10.39644766383636 0.06349924884827213 -5.612270795692515 -15.695554346598081 3.221734260904854 0.04037076042020251 -0.0459731360132747 -0.002102481580971198 -0.03416354212515664 4.701596777253279 -0.022424862075152516 12.504308010998773 -8.275192281175066 6.85154492083522 0.033467310197224945 46.40166043736335 0.012800069511372617 -4.330176515153939 -14.708280953321166 -3.854800532999118 0.0027605900701191807 -0.04016720618276611 -0.029877252680543944 -0.04026995311673647 -10.767161026375437 -0.020789553788985535 
-0.03510084899749837 -0.007724332878229774 -0.019056805404337226 -0.01575598446360693 0.04024745994097964 0.01226221759903816 -3.164752932846325 2.092388018076245 -0.6818906521874258 -1.0134570993433507 3.7914331400159837 0.406526080452537 -0.9968259737771626 -1.8228067684196514 -2.0713128082066503 -0.8256026691356297 0.4708831326501708 -0.9229548803802945 -2.115551437999042 13.668653830984896 4.96632518090392 -0.5069949835320566 -0.7639294173856859 10.396164878039869 -1.9477998444641638 -16.58909505453417 0.9592995788095049 -4.101846867763659 1.602767284771947 -13.233440305582466 73.09748180691963 18.45155542432741 11.351103033949688 12.38422638723935 6.006954342179721 71.90084439482294 17.204289794998424 -0.32669007560317176 -3.46489925639897 4.524401720996854 -0.11603234775007396 -1.5595639970708208 -0.03214894605594272 0.006639093809968344 -56.21466272222821 0.036278388738517464 -0.04173928198962399 -56.21422308085333 -38.76495676259845 0.0006309514288771897 0.013475470797525646 -0.034192827617380885 -0.018015675613860638 -0.02107738753291654 -0.03323328309974673 -0.011531339274064146 0.000958718841913747 -36.6683610373648 -0.0252025904618005 -0.0018433698706186317 -0.04667682032069473 -0.038068622225397655 -0.03421882823163931 -0.04915114182438379 -0.0040299866731144185 -0.017267101577211945 -19.786145019240248 0.023844893996308167 -0.008875732612062636 -0.0028662355969086813 -0.03397744925360904 0.01737526632613198 0.035230340847651136 0.027649007187729068 0.01058209555963243 24.05001508770396 -0.03964052095273493 -0.04647933869582103 28.881331626808684 0.015398723633808594 -0.04049442516046667 28.903709367820817 0.0005115092114310204 0.007735540473534899 10.134650648645882 2.0716378573352205 12.39006692676049 -70.47165633184122 8.247364137116165 -28.369899402329974 -64.10979472215983 10.183544449648636 -92.25600386768268 -6.994379796359495 2.6835203682988333 -2.3879303386084185 -0.5192885357010042 0.04875407216392812 -8.12273576218338 0.008451509174957435 -0.0072718052793229095 44.61748070319783 0.005234887106324084 0.033712095321045195 44.539575016588905 12.497492270628193 0.04474802062950213 -0.02684150837144796 0.013150912618088411 0.03735247485531564 -0.020055481147122807 -0.026433059832213574 -0.039294152785717434 0.009092913404826415 11.106056249984592 0.004818816191151199 0.03217454292955798 0.00607815567850992 0.019534337055202102 0.038300493528782446 0.047308534915676576 -0.007614158353035957 -0.002926925390376268 4.723100495070949 -0.03038577400850053 -0.027187532022278818 0.00031182404248766116 -0.028953369488305042 -0.018811226689044364 -0.03789146750502185 0.03204699174889312 0.04082565646061424 -5.584309064464657 0.02498058752350955 0.046555923570121366 -6.742228088115753 0.031421625764330226 -0.0008161557564745948 -6.674482697786658 0.010078678649701137 -0.03692617126128492 0.008195916010556876 0.0016723622405890965 0.007144456440528433 8.076832798036431 3.48482315935034 -19.219292110959984 -0.023769098531154255 10.42097560658694 0.04930569828850008 -5.659342291131983 -15.66560044527579 3.194654516835037 -0.008034023945859458 -0.03951980306880124 0.048436073557077144 0.0234825851002721 4.6938412035527755 -0.0030723538555295 12.475898635227725 -8.25919519057383 6.87011339668852 0.02098707549884399 46.39808038981736 3.09803511322395e-05 -4.337911533885357 -14.737017264276751 -3.789708729080862 -0.02869097484461541 -0.023313633602838117 -0.013409678225955624 -0.029154544806736404 -10.753255576974736 0.027507431582391897 
-0.03505084305638042 -0.03367852489272772 -0.03598965446096727 0.04410442160784375 -0.03425297323592057 0.0012912064541324517 -3.056717455001886 2.16292517323601 -0.6685498952281402 -1.0540116278637022 3.8715063573901993 0.3661624746405467 -1.046836343216629 -1.8066545209619114 -1.9452973697820706 -0.7128937929676831 0.5016938336751207 -0.9350339513245396 -1.947875975661616 13.731593247128378 4.4669216703271495 -0.5418164164527832 -0.7591134012826828 9.208275944547658 -1.818763623979264 -16.516623910735863 0.8077616696468192 -4.367872355089203 1.754456615273024 -13.275395412678721 72.99467916724936 16.840304214194916 12.144215350247746 12.920109234616426 5.9941667533500445 72.14957096686794 16.264571083387533 -0.3516485593215506 -3.0217319936352194 4.496297893447144 -0.1707194222215115 -1.5961190090791517 0.01932489516395106 0.03551472166558482 -56.243003792944805 -0.00589086450144634 -0.04322210097235261 -56.192095178130664 -38.81327448021224 0.026136286097160597 -0.021471865060668293 0.015962880186662073 -0.018152263617721258 0.0009333995053718128 -0.03587592630961411 0.04757628134687172 -0.011113769351021208 -36.68271778564952 0.025014060970648316 -0.027858667251778862 0.04158956222728556 -0.004198670783186204 0.03809748962250328 -0.03315477941333218 0.031357016736892014 -0.04570493378685727 -19.76033542579298 0.011942525108212313 -0.029503897687114793 0.023349540755365432 0.04749700633592657 -0.010177169310669098 -0.03308270439200312 0.0440916874378775 -0.02218775000187229 24.00550339491423 0.026015426755932654 0.0192528695867681 28.87445547944542 0.036594828062388854 0.04556734721021577 28.841553214799543 -0.00599256750788856 -0.010167749867100399 9.89302504631425 2.0909940562577303 12.443420339050762 -70.19108944944044 8.862155627775598 -27.68199342827235 -60.87547268507335 10.52872783085472 -91.14230380025242 -6.5933048723736984 2.9997841124530336 -2.525271406057435 -0.5010842559927439 0.06703763843028614 -8.164179096894786 -0.035898774831369315 -0.002297974327449422 44.56121864097354 -0.03718342730535378 0.018940639412526383 44.61746265740235 12.491969947209178 -0.019985841211756086 -0.048299714666160565 -0.042964491991617976 0.03010638771706673 7.431492277294725e-05 -0.04781916745412959 -0.03876733845344409 0.0051432933191915215 11.135898922329616 -0.014721619742285282 -0.002255979045666775 -0.009559686002583069 -0.03401619140847892 -0.0045643439562064615 0.004182596912555448 0.016203596679028147 -0.04574952618812306 4.812095317672351 -0.03073202513752248 -0.02950928364701206 -0.024178583085119866 0.03763848799571878 0.008082171547116863 -0.02074626705943132 0.04932338046386859 0.039012189088089747 -5.597522786347301 0.015132327546241539 -0.01677892435851825 -6.726765858221634 0.020008058891394908 0.028187200786580317 -6.706267609018135 -0.015374042995622722 0.02770079010829287 0.018676828643920153 -0.03852204138845501 0.03178670193248934 8.056619264374016 3.506704734339926 -19.194926569331447 -0.014314622768840496 10.386662628176627 0.033101550835909835 -5.590188651333887 -15.654567435351534 3.1767257537272653 -0.03654988182758503 0.047434769748098314 -0.007634237206146886 -0.0038624819199046946 4.648178194941963 0.0053253832007322055 12.452328055829648 -8.243644163414695 6.890229042043372 -0.01324223475313616 46.34327077213795 0.021363874957019066 -4.352668643105997 -14.700338866440536 -3.8144994251971056 0.03177433597827518 -0.028959435739077753 0.010887718707039687 -0.0027416197954729417 -10.78498897103352 -0.017233939634760307 
-0.006322347707586132 0.038691751218133875 -0.034456876156351145 0.03803220667962114 -0.026737608864006175 -0.001080297607564044 -3.077116520538944 2.196797277248775 -0.7073587020029262 -1.037117243333196 3.8214306459041745 0.39475809628935876 -1.0209171789326135 -1.708484304634368 -1.8852917176215342 -0.6691939984987103 0.5641711869147858 -0.9383702663562705 -1.8641992021844103 13.76606528019835 4.125205490679583 -0.5269754586516748 -0.7005349686493247 8.214534598448461 -1.6740901678451836 -16.470929996445594 0.7254307736005692 -4.526371284638955 1.7688681084727573 -13.335371959061368 72.90936205833334 16.494231388885996 12.145388381612685 12.046174290332996 5.761638398345883 69.81918836675884 15.644424479826652 -0.29805648340786156 -2.6899183107934608 4.537093097060224 -0.16441263050844312 -1.6253441065844092 -0.035640757419037994 0.012666439318731073 -56.18734609469543 -0.04325546497507615 0.006698625527883667 -56.25164376706071 -38.817963061803255 0.030733304003400505 -0.015030811823568926 -0.02433734217312157 0.0042989889386020235 0.024476135037400627 -0.015498487203364214 -0.04785216854331294 0.006611028547615533 -36.68627069131774 0.011944065092564175 0.040737032809113935 -0.014719753807636621 -0.009077316140285022 -0.0063395412129369725 -0.02051999285011816 0.031340878282311156 -0.00026948123424503365 -19.73140105197827 -0.034211402071228796 -0.03473697110151472 -0.031230585910775516 0.0020709486568106354 0.014118631284603599 -0.016866758693808673 0.003545205903033248 0.016146097064816137 24.019632189525094 -0.03457230455034308 0.03170678173759722 28.83389779919577 -0.037808929161054994 -0.04277129157105098 28.873240278016016 -0.02118936572187666 0.014527553593816678 9.69513873981159 2.0296737482067204 12.46726365493405 -69.85268642006847 9.791775595113275 -26.84362554729638 -56.57321358322015 11.035821660950768 -88.46927496172911 -6.268029675599598 3.09898631205375 -2.544680240199477 -0.511538606162266 0.08260118872198763 -8.128037221572837 0.029061166073018785 0.049737010509218166 44.530149574069036 0.03884233543661804 0.016444676044218072 44.55679840115618 12.463810880998956 0.029881285273714173 0.025567254246022686 0.015737398497801224 0.014865027315565433 -0.011615293919678155 -0.014767672959161454 0.02666687483681808 -0.020996856712575236 11.135195098921466 -0.044899857649743344 0.004804865411744836 -0.01055600500179505 -0.024321033109332205 0.012824064568337186 -0.01074696409093249 0.049001178877968364 -0.018462691138491645 4.740937266579756 -0.045344547983369225 0.014662767129419763 0.041253009643991624 -0.03347856072261612 0.0038738140115714224 -0.014926019518460157 -0.012185073330947198 0.016052200843832232 -5.592841146503147 -0.03126227602306435 0.001547381732281304 -6.698146320969147 0.002841795094639154 0.036567758713260505 -6.732742014667459 -0.027641314883428577 0.04589938053440255 -0.02582414826211761 -0.035999817638076144 0.034198187729763144 8.020995133454024 3.512896454424437 -19.17632804011728 0.007920557930860871 10.345865258753916 0.015438307220100395 -5.607513358443119 -15.636093865209014 3.1691521140264136 -0.02507900456632341 0.012446836249026 -0.01373054893003119 -0.0032451912581272033 4.726691357640324 -0.010311497589251801 12.42965702321308 -8.255769369961579 6.915101878437487 0.001369885526710838 46.39856901994661 -0.04095435502215269 -4.358252725799927 -14.737160998855805 -3.846994343013216 0.01291935128454587 -0.011079000600097757 0.004908989468164854 0.007556756184891301 -10.740694931753914 0.025532051050581456 
